<?xml version="1.0" standalone="no"?>
<!DOCTYPE svg PUBLIC "-//W3C//DTD SVG 20010904//EN"
 "http://www.w3.org/TR/2001/REC-SVG-20010904/DTD/svg10.dtd">
<svg version="1.0" xmlns="http://www.w3.org/2000/svg"
 width="225.000000pt" height="225.000000pt" viewBox="0 0 225.000000 225.000000"
 preserveAspectRatio="xMidYMid meet">
<metadata>
Created by potrace 1.11, written by Peter Selinger 2001-2013
</metadata>
<g transform="translate(0.000000,225.000000) scale(0.100000,-0.100000)"
fill="#000000" stroke="none">
<path d="M1192 1503 c-17 -15 -56 -57 -86 -92 -41 -48 -52 -68 -45 -78 11 -12
5 -33 -10 -33 -4 0 -33 23 -65 51 -52 47 -59 51 -82 40 -18 -8 -23 -8 -18 0 7
12 11 13 -133 -33 l-93 -29 0 -49 c0 -44 3 -50 21 -50 33 0 16 -22 -20 -26
-18 -2 -41 -8 -51 -14 -27 -15 -30 -13 -30 20 0 45 -33 101 -76 130 -29 19
-53 26 -111 29 -88 4 -144 -9 -235 -56 -103 -54 -103 -55 -49 -143 32 -52 52
-75 66 -75 16 0 33 -31 89 -160 38 -88 71 -162 73 -164 5 -7 91 17 140 39 l42
19 -14 48 c-8 26 -15 50 -15 51 0 2 14 -8 30 -22 53 -44 98 -44 202 2 5 2 8
-6 8 -18 0 -22 3 -22 61 -16 91 11 109 22 109 68 0 21 5 38 10 38 6 0 60 -25
120 -56 61 -30 118 -54 128 -52 13 3 18 16 20 63 3 60 3 60 43 77 l40 17 -3
-32 c-3 -32 -3 -32 62 -44 36 -7 77 -10 92 -7 21 4 28 1 33 -16 4 -13 12 -19
21 -16 8 3 14 -1 14 -8 0 -10 28 -19 89 -30 100 -19 125 -14 118 20 -3 16 2
24 17 28 35 9 38 7 31 -23 -6 -28 -5 -29 52 -37 49 -8 58 -12 63 -33 4 -18 18
-29 57 -42 87 -29 82 -36 171 231 l80 238 -67 17 c-36 9 -77 17 -91 17 -14 1
-27 5 -30 8 -3 3 -48 16 -100 27 -118 26 -130 22 -130 -47 0 -44 -3 -50 -20
-50 -12 0 -34 -7 -50 -15 l-29 -15 -7 48 c-3 26 -9 65 -13 87 l-7 40 -74 -2
c-112 -3 -203 -14 -217 -25 -7 -6 -13 -19 -13 -28 0 -18 -2 -17 -37 0 -21 11
-47 22 -58 25 -17 6 -12 11 30 32 28 14 52 27 54 29 2 2 -14 31 -36 65 l-41
61 -30 -29z m51 -58 c19 -27 20 -25 -52 -62 -51 -26 -51 -26 -51 -14 0 10 72
100 80 100 3 0 13 -10 23 -24z m354 -182 c10 -79 9 -91 -8 -125 -21 -42 -25
-98 -8 -131 6 -12 25 -34 43 -49 l31 -27 -40 -1 c-22 0 -45 4 -51 8 -7 4 -17
41 -23 82 -7 41 -13 76 -15 78 -2 2 -11 -16 -19 -40 l-14 -43 -25 54 c-14 29
-28 50 -31 45 -2 -5 -8 -33 -12 -61 -7 -57 -16 -62 -74 -46 -20 5 -22 10 -17
41 3 19 14 45 25 56 18 19 19 24 6 37 -13 12 -13 25 2 102 l16 87 43 0 c37 0
44 -3 48 -22 14 -69 24 -101 25 -81 1 12 6 45 12 73 10 48 12 50 43 50 l33 0
10 -87z m-1125 51 c91 -46 88 -159 -6 -242 -20 -17 -36 -38 -36 -47 0 -8 9
-48 20 -87 11 -40 20 -75 20 -79 0 -9 -75 -30 -78 -21 -2 4 -36 81 -76 172
-67 152 -74 165 -97 163 -19 -2 -29 6 -46 37 -13 21 -23 44 -23 49 0 20 90 56
185 74 31 6 107 -4 137 -19z m378 -24 c0 -49 13 -67 25 -32 3 9 19 33 35 52
l29 35 40 -40 41 -39 -55 -56 c-30 -31 -55 -58 -55 -61 0 -4 21 -14 48 -24 26
-10 61 -33 77 -52 17 -19 48 -40 70 -47 34 -12 39 -18 40 -45 1 -20 -4 -31
-13 -31 -8 0 -70 29 -139 65 -68 36 -125 65 -126 65 -1 0 -3 -32 -5 -72 -2
-40 -4 -73 -5 -74 -1 -1 -15 -4 -32 -6 -29 -3 -30 -2 -28 37 1 22 4 63 8 92 6
43 4 57 -14 86 -12 20 -21 51 -21 75 0 50 -8 72 -26 72 -29 0 -12 27 24 37 76
21 82 19 82 -37z m408 0 c19 -11 32 -25 30 -30 -2 -5 -27 -33 -55 -63 -29 -31
-53 -57 -53 -60 0 -9 50 6 61 19 17 20 32 17 60 -12 l24 -25 -25 -20 c-14 -10
-49 -26 -79 -35 -44 -13 -61 -14 -94 -4 -117 35 -128 172 -17 228 55 27 105
28 148 2z m658 -11 c17 -6 24 -24 39 -101 10 -51 21 -86 23 -78 3 8 13 44 22
80 l17 65 41 -1 c23 0 45 -3 48 -6 8 -9 -122 -392 -135 -396 -7 -2 -23 -1 -36
2 -25 6 -25 8 -26 124 -1 120 -10 122 -25 6 -7 -62 -13 -68 -54 -59 -39 9 -39
35 0 83 42 53 50 117 20 170 -14 26 -21 50 -18 67 4 17 1 28 -8 32 -8 3 -14
11 -14 19 0 11 10 13 43 8 23 -4 51 -10 63 -15z m-125 -96 c62 -37 59 -125 -7
-183 -52 -45 -115 -45 -158 2 -25 27 -28 37 -23 75 10 92 113 150 188 106z
m-793 -28 c-2 -10 -7 -12 -17 -5 -13 7 -13 11 -1 25 15 18 24 8 18 -20z m-281
15 c16 -6 37 -24 46 -39 47 -80 -16 -187 -117 -198 -37 -5 -48 -1 -77 25 -29
26 -34 37 -34 75 0 57 26 94 85 125 50 25 56 26 97 12z"/>
<path d="M388 1218 c-14 -12 -13 -19 4 -77 l20 -64 28 29 c16 16 29 36 30 44
6 43 -1 58 -31 69 -38 13 -32 13 -51 -1z m52 -64 c0 -30 -16 -31 -24 -1 -11
40 -8 51 9 37 8 -7 15 -23 15 -36z"/>
<path d="M1127 1240 c-30 -24 -37 -70 -12 -90 11 -10 20 -5 47 25 36 41 52 65
46 70 -1 2 -14 6 -28 10 -18 4 -34 0 -53 -15z m43 -17 c-1 -10 -36 -53 -44
-53 -11 0 -6 36 6 48 13 13 38 16 38 5z"/>
<path d="M1677 1150 c-28 -40 10 -98 58 -88 22 4 62 55 51 65 -4 4 -11 2 -15
-6 -11 -17 -51 -10 -65 12 -8 14 -8 20 4 27 13 8 13 10 -2 10 -9 0 -23 -9 -31
-20z"/>
<path d="M627 1132 c-23 -25 -22 -69 2 -82 46 -24 101 -2 101 42 0 20 -1 20
-19 4 -30 -27 -64 -12 -59 25 5 33 -2 37 -25 11z"/>
<path d="M2026 811 c-5 -7 -5 -15 -2 -18 3 -4 6 0 7 8 1 8 4 3 8 -10 6 -23 7
-23 21 -5 8 11 10 16 6 12 -5 -4 -14 0 -21 9 -9 12 -14 13 -19 4z"/>
<path d="M2077 781 c-4 -17 -3 -21 5 -13 5 5 8 16 6 23 -3 8 -7 3 -11 -10z"/>
</g>
</svg>
